<svg xmlns="http://www.w3.org/2000/svg" viewBox="0 0 1600 1000" role="img" aria-labelledby="title desc">
  <title id="title">Menu Card Placeholder</title>
  <desc id="desc">Placeholder image for a Burger Zone menu card.</desc>
  <defs>
    <linearGradient id="bg" x1="0" y1="0" x2="1" y2="1">
      <stop offset="0%" stop-color="#f8b344"/>
      <stop offset="100%" stop-color="#dd7b16"/>
    </linearGradient>
  </defs>
  <rect width="1600" height="1000" fill="#17130d"/>
  <circle cx="1230" cy="180" r="260" fill="rgba(255,255,255,0.08)"/>
  <rect x="140" y="120" width="440" height="440" rx="44" transform="rotate(45 360 340)" fill="#98c83f"/>
  <rect x="120" y="100" width="1360" height="800" rx="60" fill="url(#bg)"/>
  <rect x="120" y="100" width="1360" height="800" rx="60" fill="rgba(23,19,13,0.12)"/>
  <g transform="translate(900 510)">
    <ellipse cx="0" cy="36" rx="250" ry="44" fill="#1d1a15" opacity=".22"/>
    <path d="M-220-110c42-75 120-118 222-118 106 0 191 46 248 134 13 20 8 45-11 57-64 42-166 66-301 66-67 0-133-9-185-29-21-8-30-32-18-52 13-21 28-40 45-58z" fill="#ededed"/>
    <rect x="-205" y="-8" width="410" height="92" rx="46" fill="#201d18"/>
    <path d="M-212 82c35 18 73 28 117 28 52 0 108-18 164-55 16-10 38-10 54 0 50 33 103 51 156 51 31 0 62-6 93-18 18-7 37 4 40 23 7 40-11 84-50 122-57 53-146 85-250 85-109 0-204-35-261-94-32-32-48-70-43-100 4-21 26-33 46-25z" fill="#ece9e1"/>
    <path d="M-165 14h330l-46 46h-244z" fill="#f8b344"/>
    <path d="M-188-18c47 28 125 28 173 0 25-15 57-15 82 0 48 28 124 28 170 0 14-9 32 5 26 22-23 65-110 108-237 108-130 0-221-45-240-111-4-16 11-29 26-19z" fill="#98c83f"/>
  </g>
  <text x="180" y="760" fill="#fff7e7" font-family="Arial, Helvetica, sans-serif" font-size="72" font-weight="700">Replace with real food image</text>
  <text x="180" y="834" fill="#fff7e7" font-family="Arial, Helvetica, sans-serif" font-size="36" opacity=".82">Suggested use: menu card thumbnail</text>
</svg>
